<svg width="36" height="36" viewBox="0 0 36 36" fill="none" xmlns="http://www.w3.org/2000/svg">
<path d="M6 31.5V18C5.175 18 4.46875 17.7063 3.88125 17.1188C3.29375 16.5313 3 15.825 3 15V12C3 11.175 3.29375 10.4688 3.88125 9.88125C4.46875 9.29375 5.175 9 6 9H10.8C10.675 8.775 10.5937 8.5375 10.5562 8.2875C10.5187 8.0375 10.5 7.775 10.5 7.5C10.5 6.25 10.9375 5.1875 11.8125 4.3125C12.6875 3.4375 13.75 3 15 3C15.575 3 16.1125 3.10625 16.6125 3.31875C17.1125 3.53125 17.575 3.825 18 4.2C18.425 3.8 18.8875 3.5 19.3875 3.3C19.8875 3.1 20.425 3 21 3C22.25 3 23.3125 3.4375 24.1875 4.3125C25.0625 5.1875 25.5 6.25 25.5 7.5C25.5 7.775 25.475 8.03125 25.425 8.26875C25.375 8.50625 25.3 8.75 25.2 9H30C30.825 9 31.5313 9.29375 32.1188 9.88125C32.7063 10.4688 33 11.175 33 12V15C33 15.825 32.7063 16.5313 32.1188 17.1188C31.5313 17.7063 30.825 18 30 18V31.5C30 32.325 29.7063 33.0313 29.1188 33.6188C28.5313 34.2063 27.825 34.5 27 34.5H9C8.175 34.5 7.46875 34.2063 6.88125 33.6188C6.29375 33.0313 6 32.325 6 31.5ZM19.9313 6.43125C19.6438 6.71875 19.5 7.075 19.5 7.5C19.5 7.925 19.6438 8.28125 19.9313 8.56875C20.2188 8.85625 20.575 9 21 9C21.425 9 21.7813 8.85625 22.0688 8.56875C22.3563 8.28125 22.5 7.925 22.5 7.5C22.5 7.075 22.3563 6.71875 22.0688 6.43125C21.7813 6.14375 21.425 6 21 6C20.575 6 20.2188 6.14375 19.9313 6.43125ZM13.5 7.5C13.5 7.925 13.6437 8.28125 13.9312 8.56875C14.2187 8.85625 14.575 9 15 9C15.425 9 15.7813 8.85625 16.0688 8.56875C16.3563 8.28125 16.5 7.925 16.5 7.5C16.5 7.075 16.3563 6.71875 16.0688 6.43125C15.7813 6.14375 15.425 6 15 6C14.575 6 14.2187 6.14375 13.9312 6.43125C13.6437 6.71875 13.5 7.075 13.5 7.5ZM6 12V15H16.5V12H6ZM16.5 31.5V18H9V31.5H16.5ZM19.5 31.5H27V18H19.5V31.5ZM30 15V12H19.5V15H30Z" fill="#0F172B"/>
</svg>
