<svg xmlns="http://www.w3.org/2000/svg" width="18" height="18" viewBox="0 0 18 18" fill="none">
  <path d="M2.96512 4.45482V13.1837H4.79651C5.00407 13.1837 5.17805 13.2534 5.31846 13.3928C5.45887 13.5323 5.52907 13.705 5.52907 13.9111C5.52907 14.1172 5.45887 14.29 5.31846 14.4294C5.17805 14.5688 5.00407 14.6385 4.79651 14.6385H2.96512C2.56221 14.6385 2.2173 14.4961 1.93038 14.2112C1.64346 13.9263 1.5 13.5838 1.5 13.1837V4.45482C1.5 4.05474 1.64346 3.71225 1.93038 3.42735C2.2173 3.14245 2.56221 3 2.96512 3H6.7561C6.95145 3 7.13765 3.03637 7.31468 3.10911C7.49171 3.18185 7.64738 3.2849 7.78169 3.41826L8.82558 4.45482H14.686C15.089 4.45482 15.4339 4.59727 15.7208 4.88217C16.0077 5.16707 16.1512 5.50956 16.1512 5.90963V6.48247C16.1512 6.68857 16.081 6.86133 15.9406 7.00075C15.8001 7.14017 15.6262 7.20988 15.4186 7.20988C15.211 7.20988 15.0371 7.14017 14.8967 7.00075C14.7562 6.86133 14.686 6.68857 14.686 6.48247V5.90963H8.22122L6.7561 4.45482H2.96512Z" fill="#101828"/>
  <path d="M14.7074 11.9138C15.0342 11.9138 15.3708 11.9805 15.6772 12.0965C15.9835 12.2219 16.2705 12.3942 16.4985 12.625C16.7361 12.8465 16.9243 13.1147 17.0521 13.4135C17.18 13.7123 17.25 14.0193 17.25 14.3368C17.25 14.7024 16.9436 15 16.5673 15H13.3323C13.4119 14.7891 13.4506 14.5676 13.4506 14.3368V14.3274C13.4506 13.8377 13.3517 13.3666 13.1539 12.9144C13.1044 12.789 13.0356 12.6742 12.9753 12.5582C13.1924 12.366 13.4506 12.2019 13.7376 12.0965C14.044 11.9711 14.3805 11.9138 14.7074 11.9138Z" fill="#101828"/>
  <path d="M9.8621 11.9044C10.189 11.9044 10.5255 11.9629 10.8319 12.0871C11.1382 12.2113 11.4156 12.3942 11.6532 12.6156C11.8896 12.8464 12.0778 13.1065 12.2068 13.4041C12.3359 13.6935 12.4047 14.0099 12.4047 14.3274H12.3951C12.3951 14.693 12.0887 14.9906 11.7123 14.9906H8.00219C7.62587 14.9906 7.31948 14.693 7.31948 14.3274C7.31949 14.0099 7.3882 13.7017 7.51725 13.4041C7.6451 13.1053 7.83337 12.8371 8.07098 12.6156C8.29895 12.3848 8.58597 12.2125 8.89233 12.0871C9.19869 11.9711 9.53523 11.9044 9.8621 11.9044Z" fill="#101828"/>
  <path d="M9.87175 8.74646C10.5641 8.74646 11.1382 9.32069 11.1382 10.0132C11.1382 10.7153 10.5641 11.2798 9.87175 11.2798C9.17941 11.2798 8.60528 10.7056 8.60528 10.0132C8.60528 9.32069 9.17941 8.74646 9.87175 8.74646Z" fill="#101828"/>
  <path d="M14.7059 8.74646C15.3982 8.74646 15.9723 9.32072 15.9723 10.0132C15.9723 10.7153 15.3982 11.28 14.7059 11.28C14.0135 11.28 13.4394 10.7057 13.4394 10.0132C13.4394 9.32072 14.0135 8.74646 14.7059 8.74646Z" fill="#101828"/>
</svg>
