<svg width="519" height="173" viewBox="0 0 519 173" fill="none" xmlns="http://www.w3.org/2000/svg">
<path d="M377.721 71.4714H367.647C367.051 68.7514 366.008 66.3619 364.519 64.3028C363.056 62.2437 361.269 60.5151 359.156 59.117C357.071 57.6935 354.755 56.6258 352.209 55.914C349.664 55.2022 347.01 54.8464 344.247 54.8464C339.21 54.8464 334.646 56.0411 330.557 58.4307C326.494 60.8202 323.258 64.3409 320.848 68.9929C318.464 73.6449 317.273 79.3518 317.273 86.1136C317.273 92.8755 318.464 98.5824 320.848 103.234C323.258 107.886 326.494 111.407 330.557 113.797C334.646 116.186 339.21 117.381 344.247 117.381C347.01 117.381 349.664 117.025 352.209 116.313C354.755 115.601 357.071 114.547 359.156 113.148C361.269 111.725 363.056 109.984 364.519 107.924C366.008 105.84 367.051 103.45 367.647 100.756H377.721C376.963 104.747 375.582 108.318 373.578 111.471C371.574 114.623 369.082 117.305 366.103 119.516C363.124 121.702 359.779 123.367 356.069 124.511C352.386 125.655 348.445 126.227 344.247 126.227C337.151 126.227 330.841 124.6 325.316 121.347C319.791 118.093 315.445 113.466 312.276 107.467C309.107 101.468 307.523 94.3499 307.523 86.1136C307.523 77.8774 309.107 70.7596 312.276 64.7604C315.445 58.7611 319.791 54.1346 325.316 50.8807C330.841 47.6269 337.151 46 344.247 46C348.445 46 352.386 46.572 356.069 47.7159C359.779 48.8598 363.124 50.5376 366.103 52.7492C369.082 54.9353 371.574 57.6045 373.578 60.7566C375.582 63.8834 376.963 67.4549 377.721 71.4714Z" fill="black"/>
<path d="M242.402 125.16V47.0676H292.614V55.4564H252.477V81.8429H290.014V90.2317H252.477V116.771H293.264V125.16H242.402Z" fill="black"/>
<path d="M157.721 125.16V47.0676H167.796V81.8429H212.158V47.0676H222.233V125.16H212.158V90.2317H167.796V125.16H157.721Z" fill="black"/>
</svg>
