<svg width="1000" height="227" viewBox="0 0 1000 227" fill="none" xmlns="http://www.w3.org/2000/svg">
<path d="M180.426 0.0791016C183.475 0.0791016 187.606 11.3235 191.208 23.6006C194.81 35.8747 199.703 53.4407 200.148 53.5186C200.591 53.588 210.59 38.3328 217.75 27.7295C224.911 17.1262 232.263 7.66689 235.167 8.59277C238.065 9.51739 238.662 23.7108 238.597 37.7061C238.533 51.6044 238.376 53.5958 237.997 65.5928C237.617 77.5899 237.074 104.591 237.997 115.731C238.919 126.872 239.22 131.33 242.05 138.601C246.211 149.288 253.247 158.761 262.352 165.878C265.709 168.502 269.548 170.539 273.688 171.548C280.395 173.182 285.292 179.436 284.819 186.747C284.331 194.284 280.437 200.412 269.708 200.412H211.568V222.991C211.568 224.567 210.29 225.845 208.714 225.845H191.034C189.458 225.845 188.18 224.567 188.18 222.991V200.412H173.006V222.991C173.006 224.567 171.729 225.845 170.153 225.845H152.474C150.898 225.845 149.62 224.567 149.62 222.991V200.412H134.445V222.991C134.445 224.567 133.167 225.845 131.591 225.845H113.912C112.336 225.845 111.058 224.567 111.058 222.991V200.412H95.8843V222.991C95.8841 224.567 94.6065 225.845 93.0308 225.845H75.3511C73.7751 225.845 72.4978 224.567 72.4976 222.991V200.412C72.4976 200.412 54.0366 199.251 23.4292 191.235C11.1679 188.024 0.198321 183.599 0.193849 180.575C0.190127 177.546 11.2887 173.431 23.4702 169.827C35.6506 166.224 53.4157 160.97 53.5151 160.383C53.6103 159.797 38.3239 149.361 27.8267 142.193C17.3295 135.026 8.0164 127.701 8.94971 124.817C9.88387 121.931 21.7471 121.453 34.4692 121.797C47.1913 122.141 65.6695 122.649 65.938 122.126C66.2036 121.599 54.9142 106.987 47.1343 96.9092C39.3538 86.8306 32.7406 76.9595 34.522 74.502C36.3087 72.0382 47.8044 75.2807 59.8384 79.5625C71.8723 83.8445 89.1951 90.0315 89.604 89.623C90.0113 89.2107 83.8036 71.9068 79.5034 59.8779C75.2028 47.8481 71.9414 36.3535 74.4028 34.5625C76.8649 32.7715 86.8001 39.4163 96.9233 47.2139C107.046 55.0113 121.594 66.2436 122.109 65.9805C122.623 65.7169 122.07 47.3345 121.702 34.5654C121.333 21.7963 121.787 9.85741 124.681 8.91602C127.581 7.97298 134.991 17.3951 142.216 27.96C149.441 38.5247 159.768 53.6708 160.334 53.5801C160.9 53.4881 166.043 35.8777 169.645 23.6006C173.247 11.3236 177.378 0.0793456 180.426 0.0791016ZM216.042 97.5098C170.378 97.5098 131.77 136.119 131.77 181.783C131.77 183.595 131.848 185.39 131.964 187.174H255.543C255.493 186.677 255.393 186.193 255.393 185.682C255.393 182.403 256.5 179.405 258.311 176.958C253.032 175.116 246.634 171.922 241.431 166.41C235.658 159.893 231.349 152.333 227.295 139.731C224.01 129.524 224.617 97.7041 224.617 97.7041C222.831 97.5893 217.855 97.5098 216.042 97.5098Z" fill="white"/>
<path d="M190.348 172.382C198.768 172.382 205.594 163.075 205.594 151.594C205.594 140.114 198.768 130.807 190.348 130.807C181.927 130.807 175.101 140.114 175.101 151.594C175.101 163.075 181.927 172.382 190.348 172.382Z" fill="white"/>
<path d="M423.802 125.132C433.495 129.669 441.125 136.475 444.218 144.723V172.563C438.65 188.649 419.678 200.403 397.406 200.403H333.86C332.054 200.403 330.59 198.939 330.59 197.133V56.9201C330.59 55.7553 331.535 54.811 332.699 54.811H393.9C416.172 54.811 435.144 66.5656 440.506 82.6508V107.81C437.825 114.821 431.845 120.802 423.802 125.132ZM393.9 77.4953H355.955V115.853H393.9C403.593 115.853 412.048 110.697 415.141 102.654V90.6934C412.048 82.6508 403.593 77.4953 393.9 77.4953ZM418.44 164.521V150.291C415.553 142.043 407.098 136.887 397.2 136.887H355.955V177.719H397.2C407.098 177.719 415.553 172.563 418.44 164.521Z" fill="white"/>
<path d="M459.464 197.241V56.9201C459.464 55.7553 460.408 54.811 461.573 54.811H481.277C482.441 54.811 483.386 55.7553 483.386 56.9201V197.241C483.386 198.987 481.922 200.403 480.116 200.403H462.734C460.928 200.403 459.464 198.987 459.464 197.241Z" fill="white"/>
<path d="M574.981 92.1362H594.684C595.849 92.1362 596.794 93.0805 596.794 94.2453V197.132C596.794 198.938 595.33 200.402 593.524 200.402H577.585C575.78 200.402 574.316 198.938 574.316 197.132V194.823C574.316 192.797 571.923 191.758 570.425 193.121C563.257 199.65 553.653 203.702 541.733 203.702C519.873 203.702 503.169 189.06 498.632 173.594V94.2453C498.632 93.0805 499.577 92.1362 500.741 92.1362H520.445C521.61 92.1362 522.554 93.0805 522.554 94.2453V167.407C525.647 174.831 533.69 181.636 547.713 181.636C561.117 181.636 570.397 174.006 572.872 166.788V94.2453C572.872 93.0805 573.816 92.1362 574.981 92.1362Z" fill="white"/>
<path d="M735.36 89.0425C756.601 89.0425 773.099 103.272 777.431 117.914V197.132C777.431 198.938 775.967 200.402 774.161 200.402H756.777C754.972 200.402 753.507 198.938 753.507 197.132V124.306C750.62 117.707 742.58 111.108 730 111.108C717.627 111.108 708.757 118.326 706.695 124.719V197.132C706.695 198.938 705.231 200.402 703.425 200.402H686.044C684.238 200.402 682.774 198.938 682.774 197.132V124.306C679.887 117.707 671.844 111.108 659.264 111.108C646.685 111.108 638.024 118.326 635.961 124.719V197.132C635.961 198.938 634.497 200.402 632.691 200.402H615.31C613.504 200.402 612.04 198.938 612.04 197.132V94.245C612.04 93.0801 612.984 92.1359 614.149 92.1359H632.409C633.574 92.1359 634.518 93.0801 634.518 94.245V97.7828C634.518 99.833 636.952 100.853 638.449 99.452C645.197 93.135 654.228 89.0425 665.657 89.0425C680.093 89.0425 692.26 96.0541 700.096 105.334C707.52 95.6416 719.481 89.0425 735.36 89.0425Z" fill="white"/>
<path d="M884.007 90.6929C886.895 90.6929 890.813 91.3116 893.081 92.1365V115.44H886.07C866.891 115.44 858.024 124.926 855.755 132.35V197.133C855.755 198.939 854.291 200.403 852.485 200.403H835.103C833.298 200.403 831.833 198.939 831.833 197.133V94.2456C831.833 93.0807 832.778 92.1365 833.943 92.1365H852.202C853.367 92.1365 854.312 93.0807 854.312 94.2456V101.307C854.312 103.525 857.077 104.45 858.475 102.729C864.167 95.718 872.58 90.6929 884.007 90.6929Z" fill="white"/>
<path d="M951.344 88.8369C974.853 88.8369 993.826 101.21 999.806 117.708V197.133C999.806 198.939 998.342 200.403 996.536 200.403H981.011C979.205 200.403 977.741 198.939 977.741 197.133V195.153C977.741 193.149 975.389 192.099 973.885 193.423C966.578 199.853 956.566 203.496 944.951 203.496C924.742 203.496 909.275 194.422 903.913 183.492V158.952C910.1 145.754 927.01 139.567 946.189 137.093C964.749 134.618 974.235 132.968 976.503 129.669V123.482C972.998 116.677 964.542 110.49 951.138 110.49C938.511 110.49 928.264 117.443 923.325 126.352C922.805 127.289 921.645 127.657 920.662 127.228L903.213 119.604C902.127 119.13 901.615 117.84 902.143 116.779C909.986 101.014 928.762 88.8369 951.344 88.8369ZM976.503 171.119V147.198C972.585 150.291 963.511 152.765 950.107 155.24C936.29 157.715 929.691 160.396 927.01 165.551V175.037C930.516 179.574 937.115 183.492 949.488 183.492C961.449 183.492 971.554 178.337 976.503 171.119Z" fill="white"/>
<path d="M792.664 197.132V94.2453C792.664 93.0805 793.609 92.1362 794.774 92.1362H814.477C815.642 92.1362 816.586 93.0805 816.586 94.2453V197.132C816.586 198.938 815.122 200.402 813.316 200.402H795.934C794.128 200.402 792.664 198.938 792.664 197.132Z" fill="white"/>
<path d="M804.681 83.8715C812.724 83.8715 819.244 77.3512 819.244 69.3081C819.244 61.2649 812.724 54.7446 804.681 54.7446C796.638 54.7446 790.117 61.2649 790.117 69.3081C790.117 77.3512 796.638 83.8715 804.681 83.8715Z" fill="white"/>
</svg>
