<svg width="519" height="173" viewBox="0 0 519 173" fill="none" xmlns="http://www.w3.org/2000/svg">
<path d="M370 71.1369H359.925C359.329 68.2391 358.287 65.6933 356.797 63.4996C355.335 61.3059 353.547 59.4643 351.435 57.9747C349.349 56.4581 347.034 55.3206 344.488 54.5623C341.942 53.804 339.288 53.4248 336.526 53.4248C331.488 53.4248 326.925 54.6977 322.835 57.2435C318.773 59.7893 315.537 63.5402 313.126 68.4964C310.743 73.4525 309.551 79.5326 309.551 86.7366C309.551 93.9406 310.743 100.021 313.126 104.977C315.537 109.933 318.773 113.684 322.835 116.23C326.925 118.776 331.488 120.048 336.526 120.048C339.288 120.048 341.942 119.669 344.488 118.911C347.034 118.153 349.349 117.029 351.435 115.539C353.547 114.022 355.335 112.167 356.797 109.974C358.287 107.753 359.329 105.207 359.925 102.336H370C369.242 106.588 367.86 110.393 365.856 113.752C363.852 117.11 361.361 119.967 358.381 122.323C355.402 124.652 352.058 126.426 348.347 127.645C344.664 128.864 340.724 129.473 336.526 129.473C329.43 129.473 323.12 127.74 317.595 124.273C312.07 120.807 307.723 115.878 304.554 109.486C301.386 103.095 299.801 95.5114 299.801 86.7366C299.801 77.9618 301.386 70.3786 304.554 63.9871C307.723 57.5956 312.07 52.6665 317.595 49.1999C323.12 45.7333 329.43 44 336.526 44C340.724 44 344.664 44.6094 348.347 45.8281C352.058 47.0468 355.402 48.8343 358.381 51.1905C361.361 53.5196 363.852 56.3633 365.856 59.7215C367.86 63.0527 369.242 66.8579 370 71.1369Z" fill="white"/>
<path d="M234.681 128.336V45.1375H284.892V54.0748H244.756V82.1867H282.293V91.124H244.756V119.398H285.542V128.336H234.681Z" fill="white"/>
<path d="M150 128.336V45.1375H160.075V82.1867H204.436V45.1375H214.511V128.336H204.436V91.124H160.075V128.336H150Z" fill="white"/>
</svg>
